<svg role="img" aria-label="PostgreSQL" xmlns="http://www.w3.org/2000/svg" viewBox="0 0 64 64">
  <circle cx="32" cy="32" r="30" fill="#336791"/>
  <path d="M19 20c3-5 11-8 20-5 8 3 12 11 9 19-2 6-8 10-16 10h-4l-6 7v-9c-6-3-8-9-3-22z" fill="#ffffff" opacity=".95"/>
  <path d="M38 25c4 1 7 4 7 8 0 5-5 8-12 8h-5l-4 5v-9c-4-3-4-8-1-12 3-5 9-6 15-4z" fill="#336791"/>
  <circle cx="35" cy="28" r="2" fill="#ffffff"/>
  <path d="M42 36c-2 2-6 3-11 3" fill="none" stroke="#ffffff" stroke-width="3" stroke-linecap="round"/>
</svg>
